<mxfile host="65bd71144e" modified="2021-01-16T09:24:53.879Z" agent="5.0 (Macintosh; Intel Mac OS X 10_14_6) AppleWebKit/537.36 (KHTML, like Gecko) Code/1.52.1 Chrome/83.0.4103.122 Electron/9.3.5 Safari/537.36" etag="g3J9vyWLpil_CgoQSsaq" version="13.10.0" type="embed">
    <diagram id="_IvBas9txB-pzoHjsF41" name="第 1 页">
        <mxGraphModel dx="1015" dy="659" grid="1" gridSize="10" guides="1" tooltips="1" connect="1" arrows="1" fold="1" page="1" pageScale="1" pageWidth="827" pageHeight="1169" math="0" shadow="0">
            <root>
                <mxCell id="0"/>
                <mxCell id="1" parent="0"/>
                <mxCell id="fj-hLsqNbNYx1WnF7DLs-1" value="action: 1" style="rounded=0;whiteSpace=wrap;html=1;fillColor=#dae8fc;strokeColor=#6c8ebf;fontFamily=Comic Sans MS;" parent="1" vertex="1">
                    <mxGeometry x="150" y="260" width="200" height="20" as="geometry"/>
                </mxCell>
                <mxCell id="fj-hLsqNbNYx1WnF7DLs-2" value="eagerReducer: basicStateReducer" style="rounded=0;whiteSpace=wrap;html=1;fillColor=#dae8fc;strokeColor=#6c8ebf;fontFamily=Comic Sans MS;" parent="1" vertex="1">
                    <mxGeometry x="150" y="280" width="200" height="20" as="geometry"/>
                </mxCell>
                <mxCell id="fj-hLsqNbNYx1WnF7DLs-3" value="eagerState: 1" style="rounded=0;whiteSpace=wrap;html=1;fillColor=#dae8fc;strokeColor=#6c8ebf;fontFamily=Comic Sans MS;" parent="1" vertex="1">
                    <mxGeometry x="150" y="300" width="200" height="20" as="geometry"/>
                </mxCell>
                <mxCell id="fj-hLsqNbNYx1WnF7DLs-4" value="lane: 1024" style="rounded=0;whiteSpace=wrap;html=1;fillColor=#dae8fc;strokeColor=#6c8ebf;fontFamily=Comic Sans MS;" parent="1" vertex="1">
                    <mxGeometry x="150" y="320" width="200" height="20" as="geometry"/>
                </mxCell>
                <mxCell id="fj-hLsqNbNYx1WnF7DLs-6" style="edgeStyle=orthogonalEdgeStyle;rounded=0;orthogonalLoop=1;jettySize=auto;html=1;entryX=0.5;entryY=0;entryDx=0;entryDy=0;fontFamily=Comic Sans MS;" parent="1" source="fj-hLsqNbNYx1WnF7DLs-5" target="fj-hLsqNbNYx1WnF7DLs-1" edge="1">
                    <mxGeometry relative="1" as="geometry">
                        <Array as="points">
                            <mxPoint x="250" y="380"/>
                            <mxPoint x="370" y="380"/>
                            <mxPoint x="370" y="240"/>
                            <mxPoint x="250" y="240"/>
                        </Array>
                    </mxGeometry>
                </mxCell>
                <mxCell id="fj-hLsqNbNYx1WnF7DLs-5" value="next" style="rounded=0;whiteSpace=wrap;html=1;fillColor=#dae8fc;strokeColor=#6c8ebf;fontFamily=Comic Sans MS;" parent="1" vertex="1">
                    <mxGeometry x="150" y="340" width="200" height="20" as="geometry"/>
                </mxCell>
                <mxCell id="fj-hLsqNbNYx1WnF7DLs-7" value="action: updateFn" style="rounded=0;whiteSpace=wrap;html=1;fillColor=#fff2cc;strokeColor=#d6b656;fontFamily=Comic Sans MS;" parent="1" vertex="1">
                    <mxGeometry x="150" y="430" width="200" height="20" as="geometry"/>
                </mxCell>
                <mxCell id="fj-hLsqNbNYx1WnF7DLs-8" value="eagerReducer: null" style="rounded=0;whiteSpace=wrap;html=1;fillColor=#fff2cc;strokeColor=#d6b656;fontFamily=Comic Sans MS;" parent="1" vertex="1">
                    <mxGeometry x="150" y="450" width="200" height="20" as="geometry"/>
                </mxCell>
                <mxCell id="fj-hLsqNbNYx1WnF7DLs-9" value="eagerState: null" style="rounded=0;whiteSpace=wrap;html=1;fillColor=#fff2cc;strokeColor=#d6b656;fontFamily=Comic Sans MS;" parent="1" vertex="1">
                    <mxGeometry x="150" y="470" width="200" height="20" as="geometry"/>
                </mxCell>
                <mxCell id="fj-hLsqNbNYx1WnF7DLs-10" value="lane: 8" style="rounded=0;whiteSpace=wrap;html=1;fillColor=#fff2cc;strokeColor=#d6b656;fontFamily=Comic Sans MS;" parent="1" vertex="1">
                    <mxGeometry x="150" y="490" width="200" height="20" as="geometry"/>
                </mxCell>
                <mxCell id="fj-hLsqNbNYx1WnF7DLs-11" style="edgeStyle=orthogonalEdgeStyle;rounded=0;orthogonalLoop=1;jettySize=auto;html=1;entryX=0.5;entryY=0;entryDx=0;entryDy=0;fontFamily=Comic Sans MS;" parent="1" source="fj-hLsqNbNYx1WnF7DLs-12" target="fj-hLsqNbNYx1WnF7DLs-7" edge="1">
                    <mxGeometry relative="1" as="geometry">
                        <Array as="points">
                            <mxPoint x="250" y="550"/>
                            <mxPoint x="370" y="550"/>
                            <mxPoint x="370" y="410"/>
                            <mxPoint x="250" y="410"/>
                        </Array>
                    </mxGeometry>
                </mxCell>
                <mxCell id="fj-hLsqNbNYx1WnF7DLs-12" value="next" style="rounded=0;whiteSpace=wrap;html=1;fillColor=#fff2cc;strokeColor=#d6b656;fontFamily=Comic Sans MS;" parent="1" vertex="1">
                    <mxGeometry x="150" y="510" width="200" height="20" as="geometry"/>
                </mxCell>
                <mxCell id="fj-hLsqNbNYx1WnF7DLs-13" value="" style="endArrow=classic;html=1;fontFamily=Comic Sans MS;" parent="1" edge="1">
                    <mxGeometry width="50" height="50" relative="1" as="geometry">
                        <mxPoint x="380" y="310" as="sourcePoint"/>
                        <mxPoint x="440" y="390" as="targetPoint"/>
                    </mxGeometry>
                </mxCell>
                <mxCell id="fj-hLsqNbNYx1WnF7DLs-14" value="" style="endArrow=classic;html=1;fontFamily=Comic Sans MS;" parent="1" edge="1">
                    <mxGeometry width="50" height="50" relative="1" as="geometry">
                        <mxPoint x="380" y="480" as="sourcePoint"/>
                        <mxPoint x="440" y="400" as="targetPoint"/>
                    </mxGeometry>
                </mxCell>
                <mxCell id="fj-hLsqNbNYx1WnF7DLs-15" value="action: updateFn" style="rounded=0;whiteSpace=wrap;html=1;fillColor=#fff2cc;strokeColor=#d6b656;fontFamily=Comic Sans MS;" parent="1" vertex="1">
                    <mxGeometry x="458" y="346" width="200" height="20" as="geometry"/>
                </mxCell>
                <mxCell id="fj-hLsqNbNYx1WnF7DLs-16" value="eagerReducer: null" style="rounded=0;whiteSpace=wrap;html=1;fillColor=#fff2cc;strokeColor=#d6b656;fontFamily=Comic Sans MS;" parent="1" vertex="1">
                    <mxGeometry x="458" y="366" width="200" height="20" as="geometry"/>
                </mxCell>
                <mxCell id="fj-hLsqNbNYx1WnF7DLs-17" value="eagerState: null" style="rounded=0;whiteSpace=wrap;html=1;fillColor=#fff2cc;strokeColor=#d6b656;fontFamily=Comic Sans MS;" parent="1" vertex="1">
                    <mxGeometry x="458" y="386" width="200" height="20" as="geometry"/>
                </mxCell>
                <mxCell id="fj-hLsqNbNYx1WnF7DLs-18" value="lane: 8" style="rounded=0;whiteSpace=wrap;html=1;fillColor=#fff2cc;strokeColor=#d6b656;fontFamily=Comic Sans MS;" parent="1" vertex="1">
                    <mxGeometry x="458" y="406" width="200" height="20" as="geometry"/>
                </mxCell>
                <mxCell id="fj-hLsqNbNYx1WnF7DLs-25" style="edgeStyle=orthogonalEdgeStyle;rounded=0;orthogonalLoop=1;jettySize=auto;html=1;exitX=0.5;exitY=1;exitDx=0;exitDy=0;entryX=0;entryY=0.5;entryDx=0;entryDy=0;fontFamily=Comic Sans MS;" parent="1" source="fj-hLsqNbNYx1WnF7DLs-19" target="fj-hLsqNbNYx1WnF7DLs-22" edge="1">
                    <mxGeometry relative="1" as="geometry"/>
                </mxCell>
                <mxCell id="fj-hLsqNbNYx1WnF7DLs-19" value="next" style="rounded=0;whiteSpace=wrap;html=1;fillColor=#fff2cc;strokeColor=#d6b656;fontFamily=Comic Sans MS;" parent="1" vertex="1">
                    <mxGeometry x="458" y="426" width="200" height="20" as="geometry"/>
                </mxCell>
                <mxCell id="fj-hLsqNbNYx1WnF7DLs-20" value="action: 1" style="rounded=0;whiteSpace=wrap;html=1;fillColor=#dae8fc;strokeColor=#6c8ebf;fontFamily=Comic Sans MS;" parent="1" vertex="1">
                    <mxGeometry x="698" y="346" width="200" height="20" as="geometry"/>
                </mxCell>
                <mxCell id="fj-hLsqNbNYx1WnF7DLs-21" value="eagerReducer: basicStateReducer" style="rounded=0;whiteSpace=wrap;html=1;fillColor=#dae8fc;strokeColor=#6c8ebf;fontFamily=Comic Sans MS;" parent="1" vertex="1">
                    <mxGeometry x="698" y="366" width="200" height="20" as="geometry"/>
                </mxCell>
                <mxCell id="fj-hLsqNbNYx1WnF7DLs-22" value="eagerState: 1" style="rounded=0;whiteSpace=wrap;html=1;fillColor=#dae8fc;strokeColor=#6c8ebf;fontFamily=Comic Sans MS;" parent="1" vertex="1">
                    <mxGeometry x="698" y="386" width="200" height="20" as="geometry"/>
                </mxCell>
                <mxCell id="fj-hLsqNbNYx1WnF7DLs-23" value="lane: 1024" style="rounded=0;whiteSpace=wrap;html=1;fillColor=#dae8fc;strokeColor=#6c8ebf;fontFamily=Comic Sans MS;" parent="1" vertex="1">
                    <mxGeometry x="698" y="406" width="200" height="20" as="geometry"/>
                </mxCell>
                <mxCell id="fj-hLsqNbNYx1WnF7DLs-26" style="edgeStyle=orthogonalEdgeStyle;rounded=0;orthogonalLoop=1;jettySize=auto;html=1;exitX=0.5;exitY=1;exitDx=0;exitDy=0;entryX=0.75;entryY=0;entryDx=0;entryDy=0;fontFamily=Comic Sans MS;" parent="1" source="fj-hLsqNbNYx1WnF7DLs-24" target="fj-hLsqNbNYx1WnF7DLs-15" edge="1">
                    <mxGeometry relative="1" as="geometry">
                        <mxPoint x="928" y="380" as="targetPoint"/>
                        <Array as="points">
                            <mxPoint x="798" y="466"/>
                            <mxPoint x="918" y="466"/>
                            <mxPoint x="918" y="326"/>
                            <mxPoint x="608" y="326"/>
                        </Array>
                    </mxGeometry>
                </mxCell>
                <mxCell id="fj-hLsqNbNYx1WnF7DLs-24" value="next" style="rounded=0;whiteSpace=wrap;html=1;fillColor=#dae8fc;strokeColor=#6c8ebf;fontFamily=Comic Sans MS;" parent="1" vertex="1">
                    <mxGeometry x="698" y="426" width="200" height="20" as="geometry"/>
                </mxCell>
                <mxCell id="fj-hLsqNbNYx1WnF7DLs-28" style="edgeStyle=orthogonalEdgeStyle;rounded=0;orthogonalLoop=1;jettySize=auto;html=1;entryX=0;entryY=0.5;entryDx=0;entryDy=0;fontFamily=Comic Sans MS;" parent="1" source="fj-hLsqNbNYx1WnF7DLs-27" target="fj-hLsqNbNYx1WnF7DLs-3" edge="1">
                    <mxGeometry relative="1" as="geometry"/>
                </mxCell>
                <mxCell id="fj-hLsqNbNYx1WnF7DLs-27" value="baseQueue" style="text;html=1;strokeColor=none;fillColor=none;align=center;verticalAlign=middle;whiteSpace=wrap;rounded=0;fontFamily=Comic Sans MS;" parent="1" vertex="1">
                    <mxGeometry y="300" width="80" height="20" as="geometry"/>
                </mxCell>
                <mxCell id="fj-hLsqNbNYx1WnF7DLs-29" style="edgeStyle=orthogonalEdgeStyle;rounded=0;orthogonalLoop=1;jettySize=auto;html=1;entryX=0;entryY=0.5;entryDx=0;entryDy=0;fontFamily=Comic Sans MS;" parent="1" source="fj-hLsqNbNYx1WnF7DLs-30" target="fj-hLsqNbNYx1WnF7DLs-9" edge="1">
                    <mxGeometry relative="1" as="geometry">
                        <mxPoint x="150" y="480" as="targetPoint"/>
                    </mxGeometry>
                </mxCell>
                <mxCell id="fj-hLsqNbNYx1WnF7DLs-30" value="pendingQueue" style="text;html=1;strokeColor=none;fillColor=none;align=center;verticalAlign=middle;whiteSpace=wrap;rounded=0;fontFamily=Comic Sans MS;" parent="1" vertex="1">
                    <mxGeometry x="-20" y="470" width="100" height="20" as="geometry"/>
                </mxCell>
                <mxCell id="fj-hLsqNbNYx1WnF7DLs-32" style="edgeStyle=orthogonalEdgeStyle;rounded=0;orthogonalLoop=1;jettySize=auto;html=1;entryX=0.5;entryY=0;entryDx=0;entryDy=0;fontFamily=Comic Sans MS;" parent="1" source="fj-hLsqNbNYx1WnF7DLs-31" target="fj-hLsqNbNYx1WnF7DLs-15" edge="1">
                    <mxGeometry relative="1" as="geometry"/>
                </mxCell>
                <mxCell id="fj-hLsqNbNYx1WnF7DLs-31" value="baseQueue&lt;br&gt;pendingQueue" style="text;html=1;strokeColor=none;fillColor=none;align=center;verticalAlign=middle;whiteSpace=wrap;rounded=0;fontFamily=Comic Sans MS;" parent="1" vertex="1">
                    <mxGeometry x="518" y="210" width="80" height="30" as="geometry"/>
                </mxCell>
            </root>
        </mxGraphModel>
    </diagram>
</mxfile>